<svg width="137" height="32" viewBox="0 0 137 32" fill="none" xmlns="http://www.w3.org/2000/svg">
<g clip-path="url(#clip0_15_43)">
<rect opacity="0.3" width="22" height="22" rx="4" fill="#191919"/>
<rect x="10" y="10" width="22" height="22" rx="4" fill="#143E95"/>
<path d="M136.142 15.3125L134.267 15.517C134.214 15.3276 134.121 15.1496 133.989 14.983C133.86 14.8163 133.686 14.6818 133.466 14.5795C133.246 14.4773 132.977 14.4261 132.659 14.4261C132.231 14.4261 131.871 14.5189 131.579 14.7045C131.292 14.8901 131.15 15.1307 131.153 15.4261C131.15 15.6799 131.242 15.8864 131.432 16.0455C131.625 16.2045 131.943 16.3352 132.386 16.4375L133.875 16.7557C134.701 16.9337 135.314 17.2159 135.716 17.6023C136.121 17.9886 136.326 18.4943 136.329 19.1193C136.326 19.6686 136.165 20.1534 135.847 20.5739C135.532 20.9905 135.095 21.3163 134.534 21.5511C133.973 21.786 133.329 21.9034 132.602 21.9034C131.534 21.9034 130.674 21.6799 130.023 21.233C129.371 20.7822 128.983 20.1553 128.858 19.3523L130.864 19.1591C130.955 19.553 131.148 19.8504 131.443 20.0511C131.739 20.2519 132.123 20.3523 132.597 20.3523C133.085 20.3523 133.477 20.2519 133.773 20.0511C134.072 19.8504 134.222 19.6023 134.222 19.3068C134.222 19.0568 134.125 18.8504 133.932 18.6875C133.742 18.5246 133.447 18.3996 133.045 18.3125L131.557 18C130.72 17.8258 130.1 17.5322 129.699 17.1193C129.297 16.7027 129.098 16.1761 129.102 15.5398C129.098 15.0019 129.244 14.536 129.54 14.142C129.839 13.7443 130.254 13.4375 130.784 13.2216C131.318 13.0019 131.934 12.892 132.631 12.892C133.653 12.892 134.458 13.1098 135.045 13.5455C135.636 13.9811 136.002 14.5701 136.142 15.3125Z" fill="#191919"/>
<path d="M122.405 21.8864C121.719 21.8864 121.106 21.7102 120.564 21.358C120.022 21.0057 119.594 20.4943 119.28 19.8239C118.966 19.1534 118.808 18.339 118.808 17.3807C118.808 16.411 118.967 15.5928 119.286 14.9261C119.608 14.2557 120.041 13.75 120.587 13.4091C121.132 13.0644 121.74 12.892 122.411 12.892C122.922 12.892 123.342 12.9792 123.672 13.1534C124.002 13.3239 124.263 13.5303 124.456 13.7727C124.649 14.0114 124.799 14.2367 124.905 14.4489H124.99V10.0966H127.053V21.733H125.03V20.358H124.905C124.799 20.5701 124.645 20.7955 124.445 21.0341C124.244 21.2689 123.979 21.4697 123.649 21.6364C123.32 21.803 122.905 21.8864 122.405 21.8864ZM122.979 20.1989C123.414 20.1989 123.786 20.0814 124.092 19.8466C124.399 19.608 124.632 19.2765 124.791 18.8523C124.95 18.428 125.03 17.9337 125.03 17.3693C125.03 16.8049 124.95 16.3144 124.791 15.8977C124.636 15.4811 124.405 15.1572 124.098 14.9261C123.795 14.6951 123.422 14.5795 122.979 14.5795C122.52 14.5795 122.138 14.6989 121.831 14.9375C121.524 15.1761 121.293 15.5057 121.138 15.9261C120.983 16.3466 120.905 16.8276 120.905 17.3693C120.905 17.9148 120.983 18.4015 121.138 18.8295C121.297 19.2538 121.53 19.589 121.837 19.8352C122.147 20.0776 122.528 20.1989 122.979 20.1989Z" fill="#191919"/>
<path d="M111.473 16.6193V21.733H109.416V13.0057H111.382V14.4886H111.484C111.685 14 112.005 13.6117 112.445 13.3239C112.888 13.036 113.435 12.892 114.087 12.892C114.689 12.892 115.214 13.0208 115.661 13.2784C116.111 13.536 116.46 13.9091 116.706 14.3977C116.956 14.8864 117.079 15.4792 117.075 16.1761V21.733H115.019V16.4943C115.019 15.911 114.867 15.4545 114.564 15.125C114.265 14.7955 113.85 14.6307 113.32 14.6307C112.96 14.6307 112.64 14.7102 112.359 14.8693C112.083 15.0246 111.865 15.25 111.706 15.5455C111.551 15.8409 111.473 16.1989 111.473 16.6193Z" fill="#191919"/>
<path d="M103.796 21.9034C102.921 21.9034 102.165 21.7216 101.528 21.358C100.896 20.9905 100.409 20.4716 100.068 19.8011C99.7273 19.1269 99.5569 18.3333 99.5569 17.4205C99.5569 16.5227 99.7273 15.7348 100.068 15.0568C100.413 14.375 100.894 13.8447 101.511 13.4659C102.129 13.0833 102.854 12.892 103.688 12.892C104.225 12.892 104.733 12.9792 105.21 13.1534C105.691 13.3239 106.116 13.589 106.483 13.9489C106.854 14.3087 107.146 14.767 107.358 15.3239C107.57 15.8769 107.676 16.536 107.676 17.3011V17.9318H100.523V16.5455H105.705C105.701 16.1515 105.616 15.8011 105.449 15.4943C105.282 15.1837 105.049 14.9394 104.75 14.7614C104.455 14.5833 104.11 14.4943 103.716 14.4943C103.296 14.4943 102.926 14.5966 102.608 14.8011C102.29 15.0019 102.042 15.267 101.864 15.5966C101.689 15.9223 101.6 16.2803 101.597 16.6705V17.8807C101.597 18.3883 101.689 18.8239 101.875 19.1875C102.061 19.5473 102.32 19.8239 102.653 20.017C102.987 20.2064 103.377 20.3011 103.824 20.3011C104.123 20.3011 104.394 20.2595 104.636 20.1761C104.879 20.089 105.089 19.9621 105.267 19.7955C105.445 19.6288 105.58 19.4223 105.671 19.1761L107.591 19.392C107.47 19.8996 107.239 20.3428 106.898 20.7216C106.561 21.0966 106.129 21.3883 105.602 21.5966C105.076 21.8011 104.474 21.9034 103.796 21.9034Z" fill="#191919"/>
<path d="M93.9475 21.733V13.0057H95.9418V14.4602H96.0327C96.1918 13.9564 96.4646 13.5682 96.8509 13.2955C97.2411 13.0189 97.6861 12.8807 98.1861 12.8807C98.2998 12.8807 98.4267 12.8864 98.5668 12.8977C98.7108 12.9053 98.8301 12.9186 98.9248 12.9375V14.8295C98.8377 14.7992 98.6994 14.7727 98.51 14.75C98.3244 14.7235 98.1445 14.7102 97.9702 14.7102C97.5952 14.7102 97.2581 14.7917 96.9589 14.9545C96.6634 15.1136 96.4305 15.3352 96.26 15.6193C96.0896 15.9034 96.0043 16.2311 96.0043 16.6023V21.733H93.9475Z" fill="#191919"/>
<path d="M83.8708 11.8636V10.0966H93.1549V11.8636H89.5583V21.733H87.4674V11.8636H83.8708Z" fill="#191919"/>
<path d="M77.4518 21.8864C76.7662 21.8864 76.1526 21.7102 75.6109 21.358C75.0692 21.0057 74.6412 20.4943 74.3268 19.8239C74.0124 19.1534 73.8552 18.339 73.8552 17.3807C73.8552 16.411 74.0143 15.5928 74.3325 14.9261C74.6545 14.2557 75.0882 13.75 75.6336 13.4091C76.1791 13.0644 76.787 12.892 77.4575 12.892C77.9689 12.892 78.3893 12.9792 78.7189 13.1534C79.0484 13.3239 79.3098 13.5303 79.503 13.7727C79.6961 14.0114 79.8458 14.2367 79.9518 14.4489H80.037V10.0966H82.0995V21.733H80.0768V20.358H79.9518C79.8458 20.5701 79.6923 20.7955 79.4916 21.0341C79.2908 21.2689 79.0257 21.4697 78.6961 21.6364C78.3666 21.803 77.9518 21.8864 77.4518 21.8864ZM78.0257 20.1989C78.4613 20.1989 78.8325 20.0814 79.1393 19.8466C79.4461 19.608 79.6791 19.2765 79.8382 18.8523C79.9973 18.428 80.0768 17.9337 80.0768 17.3693C80.0768 16.8049 79.9973 16.3144 79.8382 15.8977C79.6829 15.4811 79.4518 15.1572 79.145 14.9261C78.842 14.6951 78.4689 14.5795 78.0257 14.5795C77.5673 14.5795 77.1848 14.6989 76.878 14.9375C76.5711 15.1761 76.3401 15.5057 76.1848 15.9261C76.0295 16.3466 75.9518 16.8276 75.9518 17.3693C75.9518 17.9148 76.0295 18.4015 76.1848 18.8295C76.3439 19.2538 76.5768 19.589 76.8836 19.8352C77.1942 20.0776 77.5749 20.1989 78.0257 20.1989Z" fill="#191919"/>
<path d="M72.0981 10.0966V21.733H70.0413V10.0966H72.0981Z" fill="#191919"/>
<path d="M63.6975 21.733V13.0057H65.6918V14.4602H65.7827C65.9418 13.9564 66.2146 13.5682 66.6009 13.2955C66.9911 13.0189 67.4361 12.8807 67.9361 12.8807C68.0498 12.8807 68.1767 12.8864 68.3168 12.8977C68.4608 12.9053 68.5801 12.9186 68.6748 12.9375V14.8295C68.5877 14.7992 68.4494 14.7727 68.26 14.75C68.0744 14.7235 67.8945 14.7102 67.7202 14.7102C67.3452 14.7102 67.0081 14.7917 66.7089 14.9545C66.4134 15.1136 66.1805 15.3352 66.01 15.6193C65.8396 15.9034 65.7543 16.2311 65.7543 16.6023V21.733H63.6975Z" fill="#191919"/>
<path d="M57.77 21.9034C56.9177 21.9034 56.179 21.7159 55.554 21.3409C54.929 20.9659 54.4442 20.4413 54.0995 19.767C53.7586 19.0928 53.5881 18.3049 53.5881 17.4034C53.5881 16.5019 53.7586 15.7121 54.0995 15.0341C54.4442 14.3561 54.929 13.8295 55.554 13.4545C56.179 13.0795 56.9177 12.892 57.77 12.892C58.6222 12.892 59.3609 13.0795 59.9859 13.4545C60.6109 13.8295 61.0938 14.3561 61.4347 15.0341C61.7794 15.7121 61.9518 16.5019 61.9518 17.4034C61.9518 18.3049 61.7794 19.0928 61.4347 19.767C61.0938 20.4413 60.6109 20.9659 59.9859 21.3409C59.3609 21.7159 58.6222 21.9034 57.77 21.9034ZM57.7813 20.2557C58.2434 20.2557 58.6298 20.1288 58.9404 19.875C59.251 19.6174 59.4821 19.2727 59.6336 18.8409C59.7889 18.4091 59.8665 17.928 59.8665 17.3977C59.8665 16.8636 59.7889 16.3807 59.6336 15.9489C59.4821 15.5133 59.251 15.1667 58.9404 14.9091C58.6298 14.6515 58.2434 14.5227 57.7813 14.5227C57.3078 14.5227 56.9139 14.6515 56.5995 14.9091C56.2889 15.1667 56.0559 15.5133 55.9006 15.9489C55.7491 16.3807 55.6734 16.8636 55.6734 17.3977C55.6734 17.928 55.7491 18.4091 55.9006 18.8409C56.0559 19.2727 56.2889 19.6174 56.5995 19.875C56.9139 20.1288 57.3078 20.2557 57.7813 20.2557Z" fill="#191919"/>
<path d="M41.2841 21.733L38 10.0966H40.267L42.3636 18.6477H42.4716L44.7102 10.0966H46.7727L49.017 18.6534H49.1193L51.2159 10.0966H53.483L50.1989 21.733H48.1193L45.7898 13.5682H45.6989L43.3636 21.733H41.2841Z" fill="#191919"/>
</g>
<defs>
<clipPath id="clip0_15_43">
<rect width="136.33" height="32" fill="white"/>
</clipPath>
</defs>
</svg>
